<?xml version="1.0" encoding="UTF-8" standalone="no"?>
<svg
   xmlns:dc="http://purl.org/dc/elements/1.1/"
   xmlns:cc="http://creativecommons.org/ns#"
   xmlns:rdf="http://www.w3.org/1999/02/22-rdf-syntax-ns#"
   xmlns:svg="http://www.w3.org/2000/svg"
   xmlns="http://www.w3.org/2000/svg"
   xmlns:sodipodi="http://sodipodi.sourceforge.net/DTD/sodipodi-0.dtd"
   xmlns:inkscape="http://www.inkscape.org/namespaces/inkscape"
   width="561.15088"
   height="105.50002"
   viewBox="0 0 148.47117 27.913546"
   version="1.1"
   id="svg8"
   inkscape:version="1.0.2 (1.0.2+r75+1)"
   sodipodi:docname="sprites.svg">
  <defs
     id="defs2" />
  <sodipodi:namedview
     id="base"
     pagecolor="#000000"
     bordercolor="#666666"
     borderopacity="1.0"
     inkscape:pageopacity="0"
     inkscape:pageshadow="2"
     inkscape:zoom="2.0000001"
     inkscape:cx="287.01469"
     inkscape:cy="58.874706"
     inkscape:document-units="px"
     inkscape:current-layer="layer1"
     inkscape:document-rotation="0"
     showgrid="false"
     units="px"
     inkscape:window-width="1366"
     inkscape:window-height="705"
     inkscape:window-x="0"
     inkscape:window-y="798"
     inkscape:window-maximized="1" />
  <metadata
     id="metadata5">
    <rdf:RDF>
      <cc:Work
         rdf:about="">
        <dc:format>image/svg+xml</dc:format>
        <dc:type
           rdf:resource="http://purl.org/dc/dcmitype/StillImage" />
        <dc:title />
      </cc:Work>
    </rdf:RDF>
  </metadata>
  <g
     inkscape:label="Layer 1"
     inkscape:groupmode="layer"
     id="layer1"
     transform="translate(-1.7176088,-17.693928)">
    <path
       id="bullet"
       style="color:#000000;font-style:normal;font-variant:normal;font-weight:normal;font-stretch:normal;font-size:medium;line-height:normal;font-family:sans-serif;font-variant-ligatures:normal;font-variant-position:normal;font-variant-caps:normal;font-variant-numeric:normal;font-variant-alternates:normal;font-variant-east-asian:normal;font-feature-settings:normal;font-variation-settings:normal;text-indent:0;text-align:start;text-decoration:none;text-decoration-line:none;text-decoration-style:solid;text-decoration-color:#000000;letter-spacing:normal;word-spacing:normal;text-transform:none;writing-mode:lr-tb;direction:ltr;text-orientation:mixed;dominant-baseline:auto;baseline-shift:baseline;text-anchor:start;white-space:normal;shape-padding:0;shape-margin:0;inline-size:0;clip-rule:nonzero;display:inline;overflow:visible;visibility:visible;opacity:1;isolation:auto;mix-blend-mode:normal;color-interpolation:sRGB;color-interpolation-filters:linearRGB;solid-color:#000000;solid-opacity:1;vector-effect:none;fill:#00ff00;fill-opacity:1;fill-rule:nonzero;stroke:none;stroke-width:1;stroke-linecap:butt;stroke-linejoin:miter;stroke-miterlimit:4;stroke-dasharray:none;stroke-dashoffset:0;stroke-opacity:1;color-rendering:auto;image-rendering:auto;shape-rendering:auto;text-rendering:auto;enable-background:accumulate;stop-color:#000000;stop-opacity:1"
       d="m 57.376556,29.269444 v 0.79332 0.794868 0.792804 0.793317 0.794871 0.79332 h 0.79375 v -0.79332 -0.794871 -0.793317 -0.792804 -0.794868 -0.79332 z" />
    <path
       id="cannon"
       style="color:#000000;font-style:normal;font-variant:normal;font-weight:normal;font-stretch:normal;font-size:medium;line-height:normal;font-family:sans-serif;font-variant-ligatures:normal;font-variant-position:normal;font-variant-caps:normal;font-variant-numeric:normal;font-variant-alternates:normal;font-variant-east-asian:normal;font-feature-settings:normal;font-variation-settings:normal;text-indent:0;text-align:start;text-decoration:none;text-decoration-line:none;text-decoration-style:solid;text-decoration-color:#000000;letter-spacing:normal;word-spacing:normal;text-transform:none;writing-mode:lr-tb;direction:ltr;text-orientation:mixed;dominant-baseline:auto;baseline-shift:baseline;text-anchor:start;white-space:normal;shape-padding:0;shape-margin:0;inline-size:0;clip-rule:nonzero;display:inline;overflow:visible;visibility:visible;opacity:1;isolation:auto;mix-blend-mode:normal;color-interpolation:sRGB;color-interpolation-filters:linearRGB;solid-color:#000000;solid-opacity:1;vector-effect:none;fill:#00ff00;fill-opacity:1;fill-rule:nonzero;stroke:none;stroke-width:1;stroke-linecap:butt;stroke-linejoin:miter;stroke-miterlimit:4;stroke-dasharray:none;stroke-dashoffset:0;stroke-opacity:1;color-rendering:auto;image-rendering:auto;shape-rendering:auto;text-rendering:auto;enable-background:accumulate;stop-color:#000000;stop-opacity:1"
       d="m 42.082232,28.475694 v 0.794588 h -0.794784 v 0.79304 0.794591 h -0.793234 -0.792716 -0.7953 -0.792716 -0.794784 v 0.793038 h -0.793234 v 0.792524 0.794588 0.793041 0.79459 h 0.793234 0.794784 0.792716 0.7953 0.792716 0.793234 0.794784 0.792716 0.7953 0.792716 0.793234 0.794784 0.792716 0.7953 0.792716 v -0.79459 -0.793041 -0.794588 -0.792524 h -0.792716 v -0.793038 h -0.7953 -0.792716 -0.794784 -0.793234 -0.792716 v -0.794591 -0.79304 h -0.7953 v -0.794588 z" />
    <path
       id="bunker"
       style="color:#000000;font-style:normal;font-variant:normal;font-weight:normal;font-stretch:normal;font-size:medium;line-height:normal;font-family:sans-serif;font-variant-ligatures:normal;font-variant-position:normal;font-variant-caps:normal;font-variant-numeric:normal;font-variant-alternates:normal;font-variant-east-asian:normal;font-feature-settings:normal;font-variation-settings:normal;text-indent:0;text-align:start;text-decoration:none;text-decoration-line:none;text-decoration-style:solid;text-decoration-color:#000000;letter-spacing:normal;word-spacing:normal;text-transform:none;writing-mode:lr-tb;direction:ltr;text-orientation:mixed;dominant-baseline:auto;baseline-shift:baseline;text-anchor:start;white-space:normal;shape-padding:0;shape-margin:0;inline-size:0;clip-rule:nonzero;display:inline;overflow:visible;visibility:visible;opacity:1;isolation:auto;mix-blend-mode:normal;color-interpolation:sRGB;color-interpolation-filters:linearRGB;solid-color:#000000;solid-opacity:1;vector-effect:none;fill:#00ff00;fill-opacity:1;fill-rule:nonzero;stroke:none;stroke-width:1;stroke-linecap:butt;stroke-linejoin:miter;stroke-miterlimit:4;stroke-dasharray:none;stroke-dashoffset:0;stroke-opacity:1;color-rendering:auto;image-rendering:auto;shape-rendering:auto;text-rendering:auto;enable-background:accumulate;stop-color:#000000;stop-opacity:1"
       d="m 12.498432,25.300693 v 0.792783 h -0.793257 v 0.795363 h -0.792738 v 0.792782 H 10.117115 V 28.47492 H 9.3243738 v 0.794846 0.792783 0.795362 0.792783 0.793298 0.794847 0.792782 0.795363 0.792782 0.793299 0.794846 0.792783 h 0.7927412 0.795322 0.792738 0.793257 0.794804 v -0.792783 h 0.792741 V 36.413065 H 14.8813 v -0.793299 h 0.792737 0.793257 0.794804 0.792741 0.795323 0.792738 0.793256 0.794804 0.792741 v 0.793299 h 0.795323 v 0.794846 h 0.792738 v 0.792783 h 0.793256 0.794805 0.79274 0.795323 0.792738 V 37.207911 36.413065 35.619766 34.826984 34.031621 33.238839 32.443992 31.650694 30.857911 30.062549 29.269766 28.47492 h -0.792738 v -0.793299 h -0.795323 v -0.792782 h -0.79274 V 26.093476 H 24.405018 V 25.300693 H 23.611762 22.819024 22.023701 21.23096 20.436156 19.6429 18.850162 18.054839 17.262098 16.467294 15.674037 14.8813 14.085977 13.293236 Z" />
    <path
       id="octopus"
       style="color:#000000;font-style:normal;font-variant:normal;font-weight:normal;font-stretch:normal;font-size:medium;line-height:normal;font-family:sans-serif;font-variant-ligatures:normal;font-variant-position:normal;font-variant-caps:normal;font-variant-numeric:normal;font-variant-alternates:normal;font-variant-east-asian:normal;font-feature-settings:normal;font-variation-settings:normal;text-indent:0;text-align:start;text-decoration:none;text-decoration-line:none;text-decoration-style:solid;text-decoration-color:#000000;letter-spacing:normal;word-spacing:normal;text-transform:none;writing-mode:lr-tb;direction:ltr;text-orientation:mixed;dominant-baseline:auto;baseline-shift:baseline;text-anchor:start;white-space:normal;shape-padding:0;shape-margin:0;inline-size:0;clip-rule:nonzero;display:inline;overflow:visible;visibility:visible;isolation:auto;mix-blend-mode:normal;color-interpolation:sRGB;color-interpolation-filters:linearRGB;solid-color:#000000;solid-opacity:1;vector-effect:none;fill:#ffffff;fill-opacity:1;fill-rule:nonzero;stroke:none;stroke-width:1;stroke-linecap:butt;stroke-linejoin:miter;stroke-miterlimit:4;stroke-dasharray:none;stroke-dashoffset:0;stroke-opacity:1;color-rendering:auto;image-rendering:auto;shape-rendering:auto;text-rendering:auto;enable-background:accumulate;stop-color:#000000"
       d="m 114.58804,24.0802 v 0.795301 h -0.79474 -0.79319 -0.79267 v 0.792715 h -0.79526 v 0.793234 0.794782 0.792718 h 0.79526 0.79267 v 0.795301 h -0.79267 v 0.792715 h 0.79267 V 30.4302 h 0.79319 0.79474 v -0.793234 h -0.79474 v -0.792715 h 0.79474 0.79268 V 28.04895 h 0.79525 0.79268 v 0.795301 h 0.79319 0.79474 v 0.792715 h -0.79474 V 30.4302 h 0.79474 0.79267 v -0.793234 h 0.79526 v -0.792715 h -0.79526 V 28.04895 h 0.79526 0.79267 V 27.256232 26.46145 25.668216 h -0.79267 v -0.792715 h -0.79526 -0.79267 -0.79474 V 24.0802 h -0.79319 -0.79268 -0.79525 z m 2.38061,4.764051 h -0.79268 -0.79525 v 0.792715 h 0.79525 0.79268 z M 113.7933,26.46145 h 0.79474 0.79268 v 0.794782 h -0.79268 -0.79474 z m 3.17535,0 h 0.79319 0.79474 v 0.794782 h -0.79474 -0.79319 z" />
    <path
       id="squid"
       style="color:#000000;font-style:normal;font-variant:normal;font-weight:normal;font-stretch:normal;font-size:medium;line-height:normal;font-family:sans-serif;font-variant-ligatures:normal;font-variant-position:normal;font-variant-caps:normal;font-variant-numeric:normal;font-variant-alternates:normal;font-variant-east-asian:normal;font-feature-settings:normal;font-variation-settings:normal;text-indent:0;text-align:start;text-decoration:none;text-decoration-line:none;text-decoration-style:solid;text-decoration-color:#000000;letter-spacing:normal;word-spacing:normal;text-transform:none;writing-mode:lr-tb;direction:ltr;text-orientation:mixed;dominant-baseline:auto;baseline-shift:baseline;text-anchor:start;white-space:normal;shape-padding:0;shape-margin:0;inline-size:0;clip-rule:nonzero;display:inline;overflow:visible;visibility:visible;isolation:auto;mix-blend-mode:normal;color-interpolation:sRGB;color-interpolation-filters:linearRGB;solid-color:#000000;solid-opacity:1;vector-effect:none;fill:#ffffff;fill-opacity:1;fill-rule:nonzero;stroke:none;stroke-width:1;stroke-linecap:butt;stroke-linejoin:miter;stroke-miterlimit:4;stroke-dasharray:none;stroke-dashoffset:0;stroke-opacity:1;color-rendering:auto;image-rendering:auto;shape-rendering:auto;text-rendering:auto;enable-background:accumulate;stop-color:#000000"
       d="m 98.498263,24.0802 v 0.79278 H 97.70548 v 0.795365 h -0.793295 v 0.792783 h -0.79485 v 0.793296 0.794849 h 0.79485 0.793295 v 0.79278 h 0.792783 v -0.79278 h 0.794846 0.793301 v 0.79278 h 0.79485 v -0.79278 h 0.7933 0.79278 v -0.794849 -0.793296 h -0.79278 v -0.792783 h -0.7933 V 24.87298 h -0.79485 V 24.0802 h -0.793301 z m 2.382997,4.761853 v 0.795365 h 0.7933 v -0.795365 z m 0.7933,0.795365 V 30.4302 h 0.79278 v -0.792782 z m -0.7933,0 h -0.79485 V 30.4302 h 0.79485 z m -0.79485,0 v -0.795365 h -0.793301 -0.794846 v 0.795365 h 0.794846 z m -1.588147,0 H 97.70548 V 30.4302 h 0.792783 z m -0.792783,0 v -0.795365 h -0.793295 v 0.795365 z m -0.793295,0 h -0.79485 V 30.4302 h 0.79485 z m 0.793295,-3.17629 h 0.792783 v 0.793296 H 97.70548 Z m 2.38093,0 h 0.79485 v 0.793296 h -0.79485 z" />
    <path
       id="crab"
       style="color:#000000;font-style:normal;font-variant:normal;font-weight:normal;font-stretch:normal;font-size:medium;line-height:normal;font-family:sans-serif;font-variant-ligatures:normal;font-variant-position:normal;font-variant-caps:normal;font-variant-numeric:normal;font-variant-alternates:normal;font-variant-east-asian:normal;font-feature-settings:normal;font-variation-settings:normal;text-indent:0;text-align:start;text-decoration:none;text-decoration-line:none;text-decoration-style:solid;text-decoration-color:#000000;letter-spacing:normal;word-spacing:normal;text-transform:none;writing-mode:lr-tb;direction:ltr;text-orientation:mixed;dominant-baseline:auto;baseline-shift:baseline;text-anchor:start;white-space:normal;shape-padding:0;shape-margin:0;inline-size:0;clip-rule:nonzero;display:inline;overflow:visible;visibility:visible;isolation:auto;mix-blend-mode:normal;color-interpolation:sRGB;color-interpolation-filters:linearRGB;solid-color:#000000;solid-opacity:1;vector-effect:none;fill:#ffffff;fill-opacity:1;fill-rule:nonzero;stroke:none;stroke-width:1;stroke-linecap:butt;stroke-linejoin:miter;stroke-miterlimit:4;stroke-dasharray:none;stroke-dashoffset:0;stroke-opacity:1;color-rendering:auto;image-rendering:auto;shape-rendering:auto;text-rendering:auto;enable-background:accumulate;stop-color:#000000"
       d="m 80.028554,24.080199 v 0.792781 h 0.793138 v -0.792781 z m 0.793138,0.792781 v 0.795365 h -0.793138 v 0.792782 H 79.23593 v 0.793296 h -0.794688 v 0.794849 0.792781 0.795364 h 0.794688 v -0.795364 -0.792781 h 0.792624 v 0.792781 0.795364 h 0.793138 v -0.795364 h 0.794691 0.79314 0.794688 0.792624 0.793138 v 0.795364 h 0.79469 v -0.795364 -0.792781 h 0.793141 v 0.792781 0.795364 h 0.794688 v -0.795364 -0.792781 -0.794849 h -0.794688 v -0.793296 h -0.793141 v -0.792782 h -0.79469 V 24.87298 h -0.793138 v 0.795365 h -0.792624 -0.794688 -0.79314 V 24.87298 Z m 3.968281,0 h 0.79469 v -0.792781 h -0.79469 z m 0,4.764437 H 83.996835 83.204211 V 30.4302 h 0.792624 0.793138 z m -3.968281,0 V 30.4302 h 0.794691 0.79314 v -0.792783 h -0.79314 z m 0,-3.17629 h 0.794691 v 0.793296 h -0.794691 z m 3.175143,0 h 0.793138 v 0.793296 h -0.793138 z" />
    <path
       id="ray"
       style="color:#000000;font-style:normal;font-variant:normal;font-weight:normal;font-stretch:normal;font-size:medium;line-height:normal;font-family:sans-serif;font-variant-ligatures:normal;font-variant-position:normal;font-variant-caps:normal;font-variant-numeric:normal;font-variant-alternates:normal;font-variant-east-asian:normal;font-feature-settings:normal;font-variation-settings:normal;text-indent:0;text-align:start;text-decoration:none;text-decoration-line:none;text-decoration-style:solid;text-decoration-color:#000000;letter-spacing:normal;word-spacing:normal;text-transform:none;writing-mode:lr-tb;direction:ltr;text-orientation:mixed;dominant-baseline:auto;baseline-shift:baseline;text-anchor:start;white-space:normal;shape-padding:0;shape-margin:0;inline-size:0;clip-rule:nonzero;display:inline;overflow:visible;visibility:visible;isolation:auto;mix-blend-mode:normal;color-interpolation:sRGB;color-interpolation-filters:linearRGB;solid-color:#000000;solid-opacity:1;vector-effect:none;fill:#ffffff;fill-opacity:1;fill-rule:nonzero;stroke:none;stroke-width:1;stroke-linecap:butt;stroke-linejoin:miter;stroke-miterlimit:4;stroke-dasharray:none;stroke-dashoffset:0;stroke-opacity:1;color-rendering:auto;image-rendering:auto;shape-rendering:auto;text-rendering:auto;enable-background:accumulate;stop-color:#000000"
       d="m 67.115149,24.477075 v 0.792715 h 0.79289 v -0.792715 z m 0.79289,0.792715 v 0.794784 h 0.792888 V 25.26979 Z m 0.792888,0.794784 v 0.793235 h 0.795472 v -0.793235 z m 0,0.793235 h -0.792888 v 0.792715 h 0.792888 z m -0.792888,0.792715 h -0.79289 v 0.7953 h 0.79289 z m 0,0.7953 v 0.792716 h 0.792888 v -0.792716 z m 0.792888,0.792716 v 0.794784 h 0.795472 V 29.23854 Z" />
    <path
       id="ufo"
       style="color:#000000;font-style:normal;font-variant:normal;font-weight:normal;font-stretch:normal;font-size:medium;line-height:normal;font-family:sans-serif;font-variant-ligatures:normal;font-variant-position:normal;font-variant-caps:normal;font-variant-numeric:normal;font-variant-alternates:normal;font-variant-east-asian:normal;font-feature-settings:normal;font-variation-settings:normal;text-indent:0;text-align:start;text-decoration:none;text-decoration-line:none;text-decoration-style:solid;text-decoration-color:#000000;letter-spacing:normal;word-spacing:normal;text-transform:none;writing-mode:lr-tb;direction:ltr;text-orientation:mixed;dominant-baseline:auto;baseline-shift:baseline;text-anchor:start;white-space:normal;shape-padding:0;shape-margin:0;inline-size:0;clip-rule:nonzero;display:inline;overflow:visible;visibility:visible;isolation:auto;mix-blend-mode:normal;color-interpolation:sRGB;color-interpolation-filters:linearRGB;solid-color:#000000;solid-opacity:1;vector-effect:none;fill:#ff0000;fill-opacity:1;fill-rule:nonzero;stroke:none;stroke-width:1;stroke-linecap:butt;stroke-linejoin:miter;stroke-miterlimit:4;stroke-dasharray:none;stroke-dashoffset:0;stroke-opacity:1;color-rendering:auto;image-rendering:auto;shape-rendering:auto;text-rendering:auto;enable-background:accumulate;stop-color:#000000"
       d="m 133.85109,24.477075 v 0.792718 h -0.79484 -0.79331 v 0.794782 h -0.79277 v 0.793234 h -0.79537 v 0.792715 h -0.79278 v 0.795301 h 0.79278 0.79537 v 0.792718 h 0.79277 v 0.794782 h 0.79331 v -0.794782 h 0.79484 v -0.792718 h 0.79279 0.79536 v 0.792718 h 0.79278 0.7933 v -0.792718 h 0.79485 0.79278 v 0.792718 h 0.79536 v 0.794782 h 0.79278 v -0.794782 h 0.7933 v -0.792718 h 0.79485 0.79278 v -0.795301 h -0.79278 v -0.792715 h -0.79485 v -0.793234 h -0.7933 v -0.794782 h -0.79278 -0.79536 v -0.792718 h -0.79278 -0.79485 -0.7933 -0.79278 -0.79536 z m -1.58815,2.380734 h 0.79331 v 0.792715 h -0.79331 z m 2.38094,0 h 0.79536 v 0.792715 h -0.79536 z m 2.38144,0 h 0.79485 v 0.792715 h -0.79485 z m 2.38299,0 h 0.79278 v 0.792715 h -0.79278 z" />
    <g
       id="squid_alt"
       transform="translate(135.25035,13.687519)">
      <path
         id="path28-3-6-9-7-4-67-6-4-6"
         style="color:#000000;font-style:normal;font-variant:normal;font-weight:normal;font-stretch:normal;font-size:medium;line-height:normal;font-family:sans-serif;font-variant-ligatures:normal;font-variant-position:normal;font-variant-caps:normal;font-variant-numeric:normal;font-variant-alternates:normal;font-variant-east-asian:normal;font-feature-settings:normal;font-variation-settings:normal;text-indent:0;text-align:start;text-decoration:none;text-decoration-line:none;text-decoration-style:solid;text-decoration-color:#000000;letter-spacing:normal;word-spacing:normal;text-transform:none;writing-mode:lr-tb;direction:ltr;text-orientation:mixed;dominant-baseline:auto;baseline-shift:baseline;text-anchor:start;white-space:normal;shape-padding:0;shape-margin:0;inline-size:0;clip-rule:nonzero;display:inline;overflow:visible;visibility:visible;opacity:1;isolation:auto;mix-blend-mode:normal;color-interpolation:sRGB;color-interpolation-filters:linearRGB;solid-color:#000000;solid-opacity:1;vector-effect:none;fill:#ffffff;fill-opacity:1;fill-rule:nonzero;stroke:none;stroke-width:1;stroke-linecap:butt;stroke-linejoin:miter;stroke-miterlimit:4;stroke-dasharray:none;stroke-dashoffset:0;stroke-opacity:1;color-rendering:auto;image-rendering:auto;shape-rendering:auto;text-rendering:auto;enable-background:accumulate;stop-color:#000000;stop-opacity:1"
         d="m -36.751762,19.18367 v 0.794588 h -0.793232 v 0.793041 h -0.794784 v 0.79459 h -0.793234 v 0.792522 0.793041 h 0.793234 v 0.794587 h 0.794784 v -0.794587 h 0.793232 v 0.794587 h 0.792718 0.794782 v -0.794587 h 0.793234 v 0.794587 h 0.794784 v -0.794587 h 0.793232 v -0.793041 -0.792522 h -0.793232 v -0.79459 h -0.794784 v -0.793041 h -0.793234 V 19.18367 h -0.794782 z m 3.175518,4.762369 v 0.793041 h 0.793232 v -0.793041 z m 0,0.793041 h -0.794784 v 0.79459 h 0.794784 z m -4.763534,-0.793041 h -0.793234 v 0.793041 h 0.793234 z m 0,0.793041 v 0.79459 h 0.794784 v -0.79459 z m 0.794784,-3.173191 h 0.793232 v 0.792522 h -0.793232 z m 2.380732,0 h 0.793234 v 0.792522 h -0.793234 z" />
    </g>
    <g
       id="crab_alt"
       transform="matrix(0.99988183,0,0,0.99975589,132.1789,13.692202)"
       style="stroke-width:1.00018">
      <path
         id="path28-3-3-7-3"
         style="color:#000000;font-style:normal;font-variant:normal;font-weight:normal;font-stretch:normal;font-size:medium;line-height:normal;font-family:sans-serif;font-variant-ligatures:normal;font-variant-position:normal;font-variant-caps:normal;font-variant-numeric:normal;font-variant-alternates:normal;font-variant-east-asian:normal;font-feature-settings:normal;font-variation-settings:normal;text-indent:0;text-align:start;text-decoration:none;text-decoration-line:none;text-decoration-style:solid;text-decoration-color:#000000;letter-spacing:normal;word-spacing:normal;text-transform:none;writing-mode:lr-tb;direction:ltr;text-orientation:mixed;dominant-baseline:auto;baseline-shift:baseline;text-anchor:start;white-space:normal;shape-padding:0;shape-margin:0;inline-size:0;clip-rule:nonzero;display:inline;overflow:visible;visibility:visible;opacity:1;isolation:auto;mix-blend-mode:normal;color-interpolation:sRGB;color-interpolation-filters:linearRGB;solid-color:#000000;solid-opacity:1;vector-effect:none;fill:#ffffff;fill-opacity:1;fill-rule:nonzero;stroke:none;stroke-width:3.78021;stroke-linecap:butt;stroke-linejoin:miter;stroke-miterlimit:4;stroke-dasharray:none;stroke-dashoffset:0;stroke-opacity:1;color-rendering:auto;image-rendering:auto;shape-rendering:auto;text-rendering:auto;enable-background:accumulate;stop-color:#000000;stop-opacity:1"
         d="m -197.12695,181.49805 v 3.0039 h 2.99804 v -3.0039 z m 2.99804,3.0039 V 187.5 h -2.99804 v 3.00391 h -2.9961 V 187.5 184.50195 h -3.0039 v 2.99805 3.00391 2.99609 2.99805 h 3.0039 v 3.0039 h 2.9961 V 202.5 h 2.99804 v -2.99805 h 3.00391 2.99805 3.0039 2.9961 2.99804 V 202.5 h 3.00391 v -2.99805 h 2.99805 v -3.0039 h 3.0039 V 193.5 190.50391 187.5 184.50195 h -3.0039 V 187.5 190.50391 H -176.125 V 187.5 h -3.00391 v -2.99805 h -2.99804 V 187.5 h -2.9961 -3.0039 -2.99805 v -2.99805 z m 15,0 h 3.00391 v -3.0039 h -3.00391 z M -176.125,202.5 v 3.00391 h 2.99805 V 202.5 Z m -21.00195,0 h -2.9961 v 3.00391 h 2.9961 z m 2.99804,-11.99609 h 3.00391 V 193.5 h -3.00391 z m 12.00196,0 h 2.99804 V 193.5 h -2.99804 z"
         transform="matrix(0.26458333,0,0,0.26458333,0,-28.837688)" />
    </g>
    <g
       id="octopus_alt"
       transform="translate(140.57991,13.687004)">
      <path
         id="path28-3-6-9-7-4-59-76-4-8-3-6-3"
         style="color:#000000;font-style:normal;font-variant:normal;font-weight:normal;font-stretch:normal;font-size:medium;line-height:normal;font-family:sans-serif;font-variant-ligatures:normal;font-variant-position:normal;font-variant-caps:normal;font-variant-numeric:normal;font-variant-alternates:normal;font-variant-east-asian:normal;font-feature-settings:normal;font-variation-settings:normal;text-indent:0;text-align:start;text-decoration:none;text-decoration-line:none;text-decoration-style:solid;text-decoration-color:#000000;letter-spacing:normal;word-spacing:normal;text-transform:none;writing-mode:lr-tb;direction:ltr;text-orientation:mixed;dominant-baseline:auto;baseline-shift:baseline;text-anchor:start;white-space:normal;shape-padding:0;shape-margin:0;inline-size:0;clip-rule:nonzero;display:inline;overflow:visible;visibility:visible;opacity:1;isolation:auto;mix-blend-mode:normal;color-interpolation:sRGB;color-interpolation-filters:linearRGB;solid-color:#000000;solid-opacity:1;vector-effect:none;fill:#ffffff;fill-opacity:1;fill-rule:nonzero;stroke:none;stroke-width:1;stroke-linecap:butt;stroke-linejoin:miter;stroke-miterlimit:4;stroke-dasharray:none;stroke-dashoffset:0;stroke-opacity:1;color-rendering:auto;image-rendering:auto;shape-rendering:auto;text-rendering:auto;enable-background:accumulate;stop-color:#000000;stop-opacity:1"
         d="m -25.994279,19.184185 v 0.794588 h -0.792717 -0.793231 -0.794785 v 0.793041 h -0.792715 v 0.79459 0.792522 0.793041 h 0.792715 0.794785 0.793231 v 0.794587 h -0.793231 v 0.793041 h 0.793231 0.792717 v -0.793041 h 0.795301 v -0.794587 h 0.792716 0.794784 v 0.794587 h 0.793233 v 0.793041 h 0.792716 0.795301 v -0.793041 h -0.795301 v -0.794587 h 0.795301 0.792716 0.794784 v -0.793041 -0.792522 -0.79459 h -0.794784 v -0.793041 h -0.792716 -0.795301 -0.792716 v -0.794588 h -0.793233 -0.794784 -0.792716 z m 4.764051,5.55541 v 0.79459 h 0.792716 0.794784 v -0.79459 h -0.794784 z m -2.38125,-0.793041 h -0.794784 -0.792716 v 0.793041 h 0.792716 0.794784 z m -3.968749,0.793041 h -0.794785 -0.792715 v 0.79459 h 0.792715 0.794785 z m 0.793231,-3.173191 h 0.792717 0.795301 v 0.792522 h -0.795301 -0.792717 z m 3.175518,0 h 0.793233 0.792716 v 0.792522 h -0.792716 -0.793233 z" />
    </g>
    <g
       id="alien_explosion"
       transform="matrix(1.00005,0,0,0.99990715,117.68627,14.086175)"
       style="stroke-width:1.00002">
      <path
         id="path28-3-6-7-6-1-0-7-8"
         style="color:#000000;font-style:normal;font-variant:normal;font-weight:normal;font-stretch:normal;font-size:medium;line-height:normal;font-family:sans-serif;font-variant-ligatures:normal;font-variant-position:normal;font-variant-caps:normal;font-variant-numeric:normal;font-variant-alternates:normal;font-variant-east-asian:normal;font-feature-settings:normal;font-variation-settings:normal;text-indent:0;text-align:start;text-decoration:none;text-decoration-line:none;text-decoration-style:solid;text-decoration-color:#000000;letter-spacing:normal;word-spacing:normal;text-transform:none;writing-mode:lr-tb;direction:ltr;text-orientation:mixed;dominant-baseline:auto;baseline-shift:baseline;text-anchor:start;white-space:normal;shape-padding:0;shape-margin:0;inline-size:0;clip-rule:nonzero;display:inline;overflow:visible;visibility:visible;opacity:1;isolation:auto;mix-blend-mode:normal;color-interpolation:sRGB;color-interpolation-filters:linearRGB;solid-color:#000000;solid-opacity:1;vector-effect:none;fill:#ffffff;fill-opacity:1;fill-rule:nonzero;stroke:none;stroke-width:3.77962;stroke-linecap:butt;stroke-linejoin:miter;stroke-miterlimit:4;stroke-dasharray:none;stroke-dashoffset:0;stroke-opacity:1;color-rendering:auto;image-rendering:auto;shape-rendering:auto;text-rendering:auto;enable-background:accumulate;stop-color:#000000;stop-opacity:1"
         d="m -254.98828,182.99805 v 3.0039 h 3.0039 v -3.0039 z m 3.0039,3.0039 V 189 h 2.9961 v -2.99805 z m 2.9961,2.99805 v 3.00391 h 2.99805 V 189 Z m 2.99805,-6.00195 v 3.0039 h 3.0039 v -3.0039 z m 3.0039,3.0039 V 189 h 2.99805 v -2.99805 z m 8.99805,-3.0039 v 3.0039 h 2.99805 v -3.0039 z m 0,3.0039 h -2.9961 V 189 h 2.9961 z m 9,-3.0039 v 3.0039 h 3.0039 v -3.0039 z m 0,3.0039 h -2.99805 V 189 h 2.99805 z M -227.98633,189 h -3.0039 v 3.00391 h 3.0039 z m -30,3.00391 V 195 h 2.99805 3.0039 v -2.99609 h -3.0039 z m 32.99805,0 V 195 h 3.0039 2.9961 v -2.99609 h -2.9961 z m -24,2.99609 v 2.99805 h 2.99805 V 195 Z m 0,2.99805 h -2.9961 v 3.0039 h 2.9961 z m -2.9961,3.0039 h -3.0039 V 204 h 3.0039 z M -230.99023,195 v 2.99805 h 3.0039 V 195 Z m 3.0039,2.99805 v 3.0039 h 2.99805 v -3.0039 z m 2.99805,3.0039 V 204 h 3.0039 v -2.99805 z m -17.99805,-3.0039 v 3.0039 h 2.99805 v -3.0039 z m 0,3.0039 h -3.0039 V 204 h 3.0039 z m 6.00195,-3.0039 v 3.0039 h 2.9961 v -3.0039 z m 2.9961,3.0039 V 204 h 2.99805 v -2.99805 z"
         transform="matrix(0.26458333,0,0,0.26458333,13.721735,-29.234563)" />
    </g>
    <g
       id="ufo_explosion"
       transform="matrix(1.00005,0,0,0.99990715,185.61252,14.086175)"
       style="fill:#ff0000;stroke-width:1.00002">
      <path
         id="path28-3-6-7-6-1-0-7-8-6"
         style="color:#000000;font-style:normal;font-variant:normal;font-weight:normal;font-stretch:normal;font-size:medium;line-height:normal;font-family:sans-serif;font-variant-ligatures:normal;font-variant-position:normal;font-variant-caps:normal;font-variant-numeric:normal;font-variant-alternates:normal;font-variant-east-asian:normal;font-feature-settings:normal;font-variation-settings:normal;text-indent:0;text-align:start;text-decoration:none;text-decoration-line:none;text-decoration-style:solid;text-decoration-color:#000000;letter-spacing:normal;word-spacing:normal;text-transform:none;writing-mode:lr-tb;direction:ltr;text-orientation:mixed;dominant-baseline:auto;baseline-shift:baseline;text-anchor:start;white-space:normal;shape-padding:0;shape-margin:0;inline-size:0;clip-rule:nonzero;display:inline;overflow:visible;visibility:visible;opacity:1;isolation:auto;mix-blend-mode:normal;color-interpolation:sRGB;color-interpolation-filters:linearRGB;solid-color:#000000;solid-opacity:1;vector-effect:none;fill:#ff0000;fill-opacity:1;fill-rule:nonzero;stroke:none;stroke-width:3.77962;stroke-linecap:butt;stroke-linejoin:miter;stroke-miterlimit:4;stroke-dasharray:none;stroke-dashoffset:0;stroke-opacity:1;color-rendering:auto;image-rendering:auto;shape-rendering:auto;text-rendering:auto;enable-background:accumulate;stop-color:#000000;stop-opacity:1"
         d="m -254.98828,182.99805 v 3.0039 h 3.0039 v -3.0039 z m 3.0039,3.0039 V 189 h 2.9961 v -2.99805 z m 2.9961,2.99805 v 3.00391 h 2.99805 V 189 Z m 2.99805,-6.00195 v 3.0039 h 3.0039 v -3.0039 z m 3.0039,3.0039 V 189 h 2.99805 v -2.99805 z m 8.99805,-3.0039 v 3.0039 h 2.99805 v -3.0039 z m 0,3.0039 h -2.9961 V 189 h 2.9961 z m 9,-3.0039 v 3.0039 h 3.0039 v -3.0039 z m 0,3.0039 h -2.99805 V 189 h 2.99805 z M -227.98633,189 h -3.0039 v 3.00391 h 3.0039 z m -30,3.00391 V 195 h 2.99805 3.0039 v -2.99609 h -3.0039 z m 32.99805,0 V 195 h 3.0039 2.9961 v -2.99609 h -2.9961 z m -24,2.99609 v 2.99805 h 2.99805 V 195 Z m 0,2.99805 h -2.9961 v 3.0039 h 2.9961 z m -2.9961,3.0039 h -3.0039 V 204 h 3.0039 z M -230.99023,195 v 2.99805 h 3.0039 V 195 Z m 3.0039,2.99805 v 3.0039 h 2.99805 v -3.0039 z m 2.99805,3.0039 V 204 h 3.0039 v -2.99805 z m -17.99805,-3.0039 v 3.0039 h 2.99805 v -3.0039 z m 0,3.0039 h -3.0039 V 204 h 3.0039 z m 6.00195,-3.0039 v 3.0039 h 2.9961 v -3.0039 z m 2.9961,3.0039 V 204 h 2.99805 v -2.99805 z"
         transform="matrix(0.26458333,0,0,0.26458333,13.721735,-29.234563)" />
    </g>
  </g>
</svg>
